<svg xmlns="http://www.w3.org/2000/svg" xmlns:xlink="http://www.w3.org/1999/xlink" width="1000" zoomAndPan="magnify" viewBox="0 0 750 74.999997" height="100" preserveAspectRatio="xMidYMid meet" version="1.0"><defs><g/><clipPath id="5f0304536d"><path d="M 43.746094 7.589844 L 112.296875 7.589844 L 112.296875 75 L 43.746094 75 Z M 43.746094 7.589844 " clip-rule="nonzero"/></clipPath></defs><g clip-path="url(#5f0304536d)"><path fill="#3375bb" d="M 46.082031 19.332031 C 43.746094 23.933594 43.746094 29.957031 43.746094 42 C 43.746094 54.042969 43.746094 60.066406 46.082031 64.667969 C 48.136719 68.710938 51.414062 72 55.445312 74.066406 C 60.027344 76.410156 66.027344 76.410156 78.023438 76.410156 C 90.019531 76.410156 96.015625 76.410156 100.601562 74.066406 C 104.628906 72 107.90625 68.710938 109.964844 64.667969 C 112.296875 60.066406 112.296875 54.042969 112.296875 42 C 112.296875 29.957031 112.296875 23.933594 109.964844 19.332031 C 107.90625 15.289062 104.628906 12 100.601562 9.933594 C 96.015625 7.589844 90.019531 7.589844 78.023438 7.589844 C 66.027344 7.589844 60.027344 7.589844 55.445312 9.933594 C 51.414062 12 48.136719 15.289062 46.082031 19.332031 Z M 95.128906 26.148438 C 95.730469 26.148438 96.296875 26.398438 96.714844 26.816406 C 97.132812 27.246094 97.367188 27.828125 97.355469 28.417969 C 97.25 34.828125 97.003906 39.730469 96.542969 43.613281 C 96.09375 47.496094 95.417969 50.375 94.402344 52.710938 C 93.714844 54.269531 92.867188 55.558594 91.871094 56.65625 C 90.535156 58.109375 89 59.164062 87.332031 60.164062 C 86.617188 60.589844 85.875 61.015625 85.09375 61.457031 C 83.433594 62.40625 81.601562 63.449219 79.53125 64.839844 C 78.785156 65.34375 77.808594 65.34375 77.058594 64.839844 C 74.957031 63.433594 73.101562 62.378906 71.425781 61.421875 C 71.054688 61.210938 70.6875 61.003906 70.332031 60.796875 C 68.371094 59.65625 66.605469 58.570312 65.0625 57 C 64.035156 55.96875 63.144531 54.710938 62.4375 53.214844 C 61.472656 51.214844 60.820312 48.796875 60.339844 45.667969 C 59.695312 41.484375 59.375 36.011719 59.257812 28.417969 C 59.246094 27.828125 59.46875 27.246094 59.890625 26.816406 C 60.304688 26.398438 60.882812 26.148438 61.484375 26.148438 L 62.40625 26.148438 C 65.246094 26.160156 71.511719 25.882812 76.929688 21.644531 C 77.734375 21.019531 78.859375 21.019531 79.664062 21.644531 C 85.082031 25.882812 91.347656 26.160156 94.195312 26.148438 Z M 90.148438 51.28125 C 90.84375 49.839844 91.421875 47.851562 91.859375 44.988281 C 92.386719 41.570312 92.707031 36.925781 92.859375 30.601562 C 89.515625 30.503906 83.777344 29.859375 78.300781 26.160156 C 72.828125 29.847656 67.085938 30.492188 63.753906 30.601562 C 63.875 35.828125 64.109375 39.890625 64.484375 43.085938 C 64.914062 46.722656 65.523438 49.183594 66.285156 50.914062 C 66.789062 52.066406 67.34375 52.894531 68.007812 53.625 C 68.894531 54.601562 70.023438 55.410156 71.554688 56.335938 C 72.1875 56.714844 72.886719 57.113281 73.652344 57.546875 C 75.011719 58.320312 76.566406 59.203125 78.300781 60.3125 C 80.003906 59.222656 81.539062 58.347656 82.878906 57.582031 C 83.285156 57.351562 83.671875 57.128906 84.042969 56.914062 C 85.925781 55.828125 87.320312 54.925781 88.359375 53.871094 C 89.054688 53.152344 89.621094 52.367188 90.148438 51.28125 Z M 90.148438 51.28125 " fill-opacity="1" fill-rule="evenodd"/></g><path fill="#3375bb" d="M 139.15625 35.132812 L 131.476562 35.132812 L 131.476562 30.589844 L 152.386719 30.589844 L 152.386719 35.132812 L 144.707031 35.132812 L 144.707031 54.675781 L 139.15625 54.675781 Z M 158.671875 38.609375 C 159.3125 37.714844 160.167969 37.035156 161.242188 36.578125 C 162.339844 36.117188 163.597656 35.890625 165.011719 35.890625 L 165.011719 40.84375 C 164.417969 40.796875 164.019531 40.777344 163.8125 40.777344 C 162.28125 40.777344 161.082031 41.210938 160.214844 42.082031 C 159.347656 42.933594 158.910156 44.214844 158.910156 45.9375 L 158.910156 54.675781 L 153.566406 54.675781 L 153.566406 36.164062 L 158.671875 36.164062 Z M 185.875 36.164062 L 185.875 54.675781 L 180.804688 54.675781 L 180.804688 52.476562 C 180.09375 53.277344 179.25 53.898438 178.265625 54.332031 C 177.285156 54.746094 176.222656 54.953125 175.078125 54.953125 C 172.65625 54.953125 170.738281 54.253906 169.320312 52.855469 C 167.902344 51.453125 167.195312 49.378906 167.195312 46.625 L 167.195312 36.164062 L 172.542969 36.164062 L 172.542969 45.835938 C 172.542969 48.816406 173.789062 50.308594 176.277344 50.308594 C 177.558594 50.308594 178.585938 49.894531 179.363281 49.070312 C 180.140625 48.21875 180.527344 46.96875 180.527344 45.316406 L 180.527344 36.164062 Z M 196.003906 54.953125 C 194.472656 54.953125 192.976562 54.769531 191.515625 54.402344 C 190.050781 54.011719 188.886719 53.53125 188.019531 52.957031 L 189.800781 49.101562 C 190.625 49.628906 191.617188 50.066406 192.785156 50.410156 C 193.949219 50.730469 195.089844 50.890625 196.210938 50.890625 C 198.472656 50.890625 199.605469 50.332031 199.605469 49.207031 C 199.605469 48.679688 199.296875 48.300781 198.679688 48.070312 C 198.0625 47.839844 197.113281 47.644531 195.835938 47.484375 C 194.324219 47.257812 193.078125 46.992188 192.097656 46.695312 C 191.113281 46.394531 190.257812 45.867188 189.527344 45.113281 C 188.820312 44.355469 188.464844 43.277344 188.464844 41.875 C 188.464844 40.707031 188.796875 39.675781 189.457031 38.78125 C 190.144531 37.863281 191.125 37.152344 192.40625 36.644531 C 193.710938 36.140625 195.238281 35.890625 197 35.890625 C 198.300781 35.890625 199.59375 36.039062 200.871094 36.335938 C 202.175781 36.613281 203.25 37.003906 204.09375 37.507812 L 202.3125 41.328125 C 200.6875 40.410156 198.917969 39.949219 197 39.949219 C 195.855469 39.949219 195 40.109375 194.429688 40.429688 C 193.855469 40.753906 193.570312 41.164062 193.570312 41.671875 C 193.570312 42.242188 193.878906 42.644531 194.496094 42.875 C 195.113281 43.105469 196.097656 43.320312 197.445312 43.527344 C 198.953125 43.78125 200.1875 44.054688 201.148438 44.355469 C 202.105469 44.628906 202.941406 45.144531 203.648438 45.902344 C 204.355469 46.660156 204.710938 47.714844 204.710938 49.070312 C 204.710938 50.214844 204.367188 51.238281 203.683594 52.132812 C 202.996094 53.027344 201.992188 53.726562 200.667969 54.230469 C 199.363281 54.710938 197.808594 54.953125 196.003906 54.953125 Z M 218.875 53.78125 C 218.351562 54.171875 217.699219 54.472656 216.921875 54.675781 C 216.167969 54.859375 215.367188 54.953125 214.523438 54.953125 C 212.328125 54.953125 210.625 54.390625 209.414062 53.265625 C 208.226562 52.140625 207.632812 50.492188 207.632812 48.3125 L 207.632812 40.707031 L 204.789062 40.707031 L 204.789062 36.578125 L 207.632812 36.578125 L 207.632812 32.070312 L 212.980469 32.070312 L 212.980469 36.578125 L 217.570312 36.578125 L 217.570312 40.707031 L 212.980469 40.707031 L 212.980469 48.242188 C 212.980469 49.023438 213.175781 49.628906 213.5625 50.066406 C 213.972656 50.480469 214.546875 50.6875 215.277344 50.6875 C 216.121094 50.6875 216.839844 50.457031 217.433594 49.996094 Z M 266.167969 30.589844 L 258.320312 54.675781 L 252.355469 54.675781 L 247.078125 38.367188 L 241.625 54.675781 L 235.695312 54.675781 L 227.8125 30.589844 L 233.570312 30.589844 L 238.988281 47.519531 L 244.644531 30.589844 L 249.785156 30.589844 L 255.269531 47.65625 L 260.855469 30.589844 Z M 273.929688 35.890625 C 276.785156 35.890625 278.976562 36.578125 280.511719 37.953125 C 282.039062 39.308594 282.804688 41.359375 282.804688 44.113281 L 282.804688 54.675781 L 277.800781 54.675781 L 277.800781 52.371094 C 276.796875 54.09375 274.921875 54.953125 272.179688 54.953125 C 270.761719 54.953125 269.527344 54.710938 268.480469 54.230469 C 267.449219 53.75 266.664062 53.082031 266.113281 52.234375 C 265.566406 51.386719 265.292969 50.421875 265.292969 49.34375 C 265.292969 47.625 265.929688 46.269531 267.210938 45.285156 C 268.511719 44.296875 270.511719 43.804688 273.210938 43.804688 L 277.460938 43.804688 C 277.460938 42.632812 277.105469 41.738281 276.398438 41.121094 C 275.6875 40.476562 274.625 40.15625 273.210938 40.15625 C 272.226562 40.15625 271.253906 40.316406 270.296875 40.636719 C 269.359375 40.9375 268.558594 41.347656 267.898438 41.875 L 265.976562 38.125 C 266.980469 37.414062 268.179688 36.863281 269.574219 36.472656 C 270.992188 36.085938 272.441406 35.890625 273.929688 35.890625 Z M 273.519531 51.339844 C 274.429688 51.339844 275.242188 51.132812 275.953125 50.71875 C 276.660156 50.285156 277.160156 49.652344 277.460938 48.828125 L 277.460938 46.933594 L 273.792969 46.933594 C 271.597656 46.933594 270.5 47.65625 270.5 49.101562 C 270.5 49.792969 270.761719 50.34375 271.289062 50.753906 C 271.839844 51.144531 272.578125 51.339844 273.519531 51.339844 Z M 286.617188 29.144531 L 291.964844 29.144531 L 291.964844 54.675781 L 286.617188 54.675781 Z M 295.898438 29.144531 L 301.246094 29.144531 L 301.246094 54.675781 L 295.898438 54.675781 Z M 323.242188 45.488281 C 323.242188 45.558594 323.207031 46.039062 323.140625 46.933594 L 309.191406 46.933594 C 309.441406 48.082031 310.035156 48.988281 310.972656 49.652344 C 311.910156 50.320312 313.074219 50.652344 314.46875 50.652344 C 315.429688 50.652344 316.273438 50.515625 317.003906 50.238281 C 317.757812 49.941406 318.457031 49.480469 319.09375 48.863281 L 321.941406 51.960938 C 320.203125 53.953125 317.667969 54.953125 314.332031 54.953125 C 312.25 54.953125 310.414062 54.550781 308.8125 53.75 C 307.210938 52.921875 305.980469 51.785156 305.109375 50.34375 C 304.242188 48.898438 303.808594 47.257812 303.808594 45.421875 C 303.808594 43.609375 304.230469 41.980469 305.078125 40.535156 C 305.945312 39.066406 307.121094 37.929688 308.605469 37.128906 C 310.117188 36.300781 311.792969 35.890625 313.644531 35.890625 C 315.453125 35.890625 317.085938 36.28125 318.546875 37.058594 C 320.011719 37.839844 321.152344 38.964844 321.976562 40.429688 C 322.820312 41.875 323.242188 43.5625 323.242188 45.488281 Z M 313.679688 39.949219 C 312.46875 39.949219 311.453125 40.292969 310.628906 40.980469 C 309.808594 41.671875 309.304688 42.609375 309.121094 43.804688 L 318.203125 43.804688 C 318.023438 42.632812 317.519531 41.703125 316.695312 41.015625 C 315.875 40.304688 314.867188 39.949219 313.679688 39.949219 Z M 337.667969 53.78125 C 337.144531 54.171875 336.492188 54.472656 335.714844 54.675781 C 334.960938 54.859375 334.160156 54.953125 333.316406 54.953125 C 331.121094 54.953125 329.417969 54.390625 328.207031 53.265625 C 327.019531 52.140625 326.425781 50.492188 326.425781 48.3125 L 326.425781 40.707031 L 323.582031 40.707031 L 323.582031 36.578125 L 326.425781 36.578125 L 326.425781 32.070312 L 331.773438 32.070312 L 331.773438 36.578125 L 336.367188 36.578125 L 336.367188 40.707031 L 331.773438 40.707031 L 331.773438 48.242188 C 331.773438 49.023438 331.96875 49.628906 332.355469 50.066406 C 332.765625 50.480469 333.339844 50.6875 334.070312 50.6875 C 334.914062 50.6875 335.632812 50.457031 336.226562 49.996094 Z M 337.667969 53.78125 " fill-opacity="1" fill-rule="nonzero"/><g fill="#3375bb" fill-opacity="1"><g transform="translate(340.161667, 53.499089)"><g><path d="M 10.25 -4.40625 L 15.03125 -18.9375 L 20.125 -18.9375 L 13.125 0 L 7.3125 0 L 0.34375 -18.9375 L 5.46875 -18.9375 Z M 10.25 -4.40625 "/></g></g></g><g fill="#3375bb" fill-opacity="1"><g transform="translate(360.623552, 53.499089)"><g><path d="M 4.78125 -21.1875 C 3.9375 -21.1875 3.234375 -21.453125 2.671875 -21.984375 C 2.117188 -22.523438 1.84375 -23.191406 1.84375 -23.984375 C 1.84375 -24.785156 2.117188 -25.453125 2.671875 -25.984375 C 3.234375 -26.523438 3.9375 -26.796875 4.78125 -26.796875 C 5.625 -26.796875 6.320312 -26.523438 6.875 -25.984375 C 7.4375 -25.453125 7.71875 -24.785156 7.71875 -23.984375 C 7.71875 -23.191406 7.4375 -22.523438 6.875 -21.984375 C 6.320312 -21.453125 5.625 -21.1875 4.78125 -21.1875 Z M 7.140625 -18.9375 L 7.140625 0 L 2.359375 0 L 2.359375 -18.9375 Z M 7.140625 -18.9375 "/></g></g></g><g fill="#3375bb" fill-opacity="1"><g transform="translate(370.120054, 53.499089)"><g><path d="M 7.140625 -16.203125 C 7.753906 -17.066406 8.601562 -17.785156 9.6875 -18.359375 C 10.769531 -18.941406 12.003906 -19.234375 13.390625 -19.234375 C 15.015625 -19.234375 16.476562 -18.832031 17.78125 -18.03125 C 19.09375 -17.238281 20.128906 -16.109375 20.890625 -14.640625 C 21.660156 -13.171875 22.046875 -11.46875 22.046875 -9.53125 C 22.046875 -7.59375 21.660156 -5.878906 20.890625 -4.390625 C 20.128906 -2.898438 19.09375 -1.742188 17.78125 -0.921875 C 16.476562 -0.0976562 15.015625 0.3125 13.390625 0.3125 C 12.003906 0.3125 10.78125 0.0234375 9.71875 -0.546875 C 8.664062 -1.117188 7.804688 -1.835938 7.140625 -2.703125 L 7.140625 9.015625 L 2.359375 9.015625 L 2.359375 -18.9375 L 7.140625 -18.9375 Z M 17.15625 -9.53125 C 17.15625 -10.675781 16.921875 -11.660156 16.453125 -12.484375 C 15.984375 -13.316406 15.367188 -13.945312 14.609375 -14.375 C 13.847656 -14.8125 13.019531 -15.03125 12.125 -15.03125 C 11.257812 -15.03125 10.445312 -14.804688 9.6875 -14.359375 C 8.925781 -13.921875 8.3125 -13.28125 7.84375 -12.4375 C 7.375 -11.59375 7.140625 -10.601562 7.140625 -9.46875 C 7.140625 -8.320312 7.375 -7.328125 7.84375 -6.484375 C 8.3125 -5.648438 8.925781 -5.007812 9.6875 -4.5625 C 10.445312 -4.113281 11.257812 -3.890625 12.125 -3.890625 C 13.019531 -3.890625 13.847656 -4.117188 14.609375 -4.578125 C 15.367188 -5.035156 15.984375 -5.6875 16.453125 -6.53125 C 16.921875 -7.375 17.15625 -8.375 17.15625 -9.53125 Z M 17.15625 -9.53125 "/></g></g></g></svg>