<svg xmlns="http://www.w3.org/2000/svg" xmlns:xlink="http://www.w3.org/1999/xlink" width="1000" zoomAndPan="magnify" viewBox="0 0 750 74.999997" height="100" preserveAspectRatio="xMidYMid meet" version="1.0"><defs><g/><clipPath id="a1f4cd456b"><path d="M 10.242188 0 L 78.796875 0 L 78.796875 67.664062 L 10.242188 67.664062 Z M 10.242188 0 " clip-rule="nonzero"/></clipPath></defs><g clip-path="url(#a1f4cd456b)"><path fill="#ffffff" d="M 12.578125 10.582031 C 10.242188 15.1875 10.242188 21.207031 10.242188 33.25 C 10.242188 45.296875 10.242188 51.316406 12.578125 55.917969 C 14.632812 59.964844 17.914062 63.253906 21.941406 65.316406 C 26.523438 67.664062 32.523438 67.664062 44.519531 67.664062 C 56.515625 67.664062 62.515625 67.664062 67.097656 65.316406 C 71.125 63.253906 74.40625 59.964844 76.460938 55.917969 C 78.796875 51.316406 78.796875 45.296875 78.796875 33.25 C 78.796875 21.207031 78.796875 15.1875 76.460938 10.582031 C 74.40625 6.539062 71.125 3.25 67.097656 1.1875 C 62.515625 -1.160156 56.515625 -1.160156 44.519531 -1.160156 C 32.523438 -1.160156 26.523438 -1.160156 21.941406 1.1875 C 17.914062 3.25 14.632812 6.539062 12.578125 10.582031 Z M 61.625 17.402344 C 62.226562 17.402344 62.792969 17.648438 63.210938 18.066406 C 63.628906 18.5 63.863281 19.078125 63.851562 19.671875 C 63.746094 26.078125 63.5 30.984375 63.039062 34.863281 C 62.589844 38.746094 61.914062 41.628906 60.898438 43.960938 C 60.210938 45.519531 59.363281 46.8125 58.367188 47.910156 C 57.03125 49.359375 55.5 50.414062 53.828125 51.414062 C 53.113281 51.84375 52.371094 52.265625 51.589844 52.710938 C 49.929688 53.660156 48.101562 54.699219 46.03125 56.089844 C 45.28125 56.597656 44.304688 56.597656 43.554688 56.089844 C 41.453125 54.683594 39.601562 53.628906 37.921875 52.675781 C 37.550781 52.460938 37.1875 52.253906 36.828125 52.046875 C 34.867188 50.910156 33.101562 49.824219 31.558594 48.253906 C 30.53125 47.21875 29.640625 45.960938 28.933594 44.46875 C 27.972656 42.46875 27.316406 40.046875 26.835938 36.917969 C 26.191406 32.734375 25.871094 27.261719 25.753906 19.671875 C 25.742188 19.078125 25.96875 18.5 26.386719 18.066406 C 26.800781 17.648438 27.382812 17.402344 27.980469 17.402344 L 28.902344 17.402344 C 31.742188 17.414062 38.007812 17.132812 43.425781 12.894531 C 44.230469 12.273438 45.355469 12.273438 46.160156 12.894531 C 51.578125 17.132812 57.84375 17.414062 60.695312 17.402344 Z M 56.644531 42.53125 C 57.339844 41.089844 57.917969 39.101562 58.359375 36.242188 C 58.882812 32.820312 59.203125 28.175781 59.355469 21.851562 C 56.011719 21.757812 50.273438 21.113281 44.796875 17.414062 C 39.324219 21.101562 33.582031 21.746094 30.25 21.851562 C 30.371094 27.078125 30.605469 31.144531 30.980469 34.339844 C 31.410156 37.972656 32.019531 40.433594 32.78125 42.167969 C 33.285156 43.316406 33.839844 44.144531 34.503906 44.875 C 35.394531 45.855469 36.519531 46.660156 38.050781 47.585938 C 38.683594 47.96875 39.386719 48.367188 40.148438 48.800781 C 41.507812 49.570312 43.0625 50.457031 44.796875 51.566406 C 46.503906 50.472656 48.035156 49.597656 49.378906 48.832031 C 49.78125 48.601562 50.167969 48.378906 50.539062 48.167969 C 52.425781 47.082031 53.816406 46.175781 54.855469 45.125 C 55.550781 44.402344 56.121094 43.617188 56.644531 42.53125 Z M 56.644531 42.53125 " fill-opacity="1" fill-rule="evenodd"/></g><path fill="#ffffff" d="M 105.652344 26.382812 L 97.972656 26.382812 L 97.972656 21.84375 L 118.882812 21.84375 L 118.882812 26.382812 L 111.203125 26.382812 L 111.203125 45.929688 L 105.652344 45.929688 Z M 125.167969 29.859375 C 125.808594 28.964844 126.667969 28.289062 127.738281 27.828125 C 128.835938 27.371094 130.09375 27.140625 131.511719 27.140625 L 131.511719 32.097656 C 130.917969 32.050781 130.515625 32.027344 130.308594 32.027344 C 128.777344 32.027344 127.578125 32.464844 126.710938 33.335938 C 125.84375 34.183594 125.410156 35.46875 125.410156 37.1875 L 125.410156 45.929688 L 120.0625 45.929688 L 120.0625 27.417969 L 125.167969 27.417969 Z M 152.375 27.417969 L 152.375 45.929688 L 147.300781 45.929688 L 147.300781 43.726562 C 146.589844 44.53125 145.746094 45.148438 144.765625 45.585938 C 143.78125 46 142.71875 46.203125 141.574219 46.203125 C 139.152344 46.203125 137.234375 45.503906 135.816406 44.105469 C 134.398438 42.707031 133.691406 40.628906 133.691406 37.878906 L 133.691406 27.417969 L 139.039062 27.417969 L 139.039062 37.085938 C 139.039062 40.066406 140.285156 41.558594 142.777344 41.558594 C 144.054688 41.558594 145.082031 41.144531 145.859375 40.320312 C 146.636719 39.472656 147.027344 38.222656 147.027344 36.570312 L 147.027344 27.417969 Z M 162.503906 46.203125 C 160.972656 46.203125 159.472656 46.019531 158.011719 45.652344 C 156.550781 45.265625 155.382812 44.78125 154.515625 44.207031 L 156.296875 40.355469 C 157.121094 40.882812 158.113281 41.316406 159.28125 41.664062 C 160.445312 41.984375 161.585938 42.144531 162.707031 42.144531 C 164.96875 42.144531 166.101562 41.582031 166.101562 40.457031 C 166.101562 39.929688 165.792969 39.550781 165.175781 39.324219 C 164.558594 39.09375 163.609375 38.898438 162.332031 38.738281 C 160.824219 38.507812 159.578125 38.246094 158.59375 37.945312 C 157.613281 37.648438 156.753906 37.121094 156.023438 36.363281 C 155.316406 35.605469 154.960938 34.527344 154.960938 33.128906 C 154.960938 31.957031 155.292969 30.925781 155.957031 30.03125 C 156.640625 29.113281 157.621094 28.402344 158.902344 27.898438 C 160.207031 27.394531 161.734375 27.140625 163.496094 27.140625 C 164.800781 27.140625 166.089844 27.289062 167.371094 27.589844 C 168.671875 27.863281 169.746094 28.253906 170.589844 28.757812 L 168.808594 32.578125 C 167.1875 31.660156 165.414062 31.203125 163.496094 31.203125 C 162.351562 31.203125 161.496094 31.363281 160.925781 31.683594 C 160.355469 32.003906 160.070312 32.417969 160.070312 32.921875 C 160.070312 33.496094 160.378906 33.898438 160.996094 34.125 C 161.613281 34.355469 162.59375 34.574219 163.941406 34.78125 C 165.449219 35.03125 166.683594 35.308594 167.644531 35.605469 C 168.605469 35.882812 169.4375 36.398438 170.144531 37.15625 C 170.851562 37.910156 171.207031 38.96875 171.207031 40.320312 C 171.207031 41.46875 170.867188 42.488281 170.179688 43.382812 C 169.496094 44.277344 168.488281 44.976562 167.164062 45.480469 C 165.863281 45.964844 164.304688 46.203125 162.503906 46.203125 Z M 185.371094 45.035156 C 184.847656 45.425781 184.195312 45.722656 183.417969 45.929688 C 182.664062 46.113281 181.863281 46.203125 181.019531 46.203125 C 178.824219 46.203125 177.125 45.644531 175.910156 44.519531 C 174.722656 43.394531 174.128906 41.742188 174.128906 39.5625 L 174.128906 31.957031 L 171.285156 31.957031 L 171.285156 27.828125 L 174.128906 27.828125 L 174.128906 23.320312 L 179.476562 23.320312 L 179.476562 27.828125 L 184.070312 27.828125 L 184.070312 31.957031 L 179.476562 31.957031 L 179.476562 39.496094 C 179.476562 40.273438 179.671875 40.882812 180.058594 41.316406 C 180.46875 41.730469 181.042969 41.9375 181.773438 41.9375 C 182.617188 41.9375 183.339844 41.707031 183.933594 41.25 Z M 232.664062 21.84375 L 224.816406 45.929688 L 218.851562 45.929688 L 213.574219 29.617188 L 208.125 45.929688 L 202.195312 45.929688 L 194.308594 21.84375 L 200.070312 21.84375 L 205.484375 38.773438 L 211.140625 21.84375 L 216.28125 21.84375 L 221.765625 38.910156 L 227.351562 21.84375 Z M 240.425781 27.140625 C 243.28125 27.140625 245.476562 27.828125 247.007812 29.207031 C 248.535156 30.558594 249.304688 32.613281 249.304688 35.367188 L 249.304688 45.929688 L 244.300781 45.929688 L 244.300781 43.625 C 243.292969 45.34375 241.421875 46.203125 238.679688 46.203125 C 237.261719 46.203125 236.027344 45.964844 234.976562 45.480469 C 233.949219 45 233.160156 44.335938 232.609375 43.484375 C 232.0625 42.636719 231.789062 41.675781 231.789062 40.597656 C 231.789062 38.875 232.425781 37.523438 233.707031 36.535156 C 235.011719 35.546875 237.007812 35.054688 239.707031 35.054688 L 243.957031 35.054688 C 243.957031 33.886719 243.601562 32.992188 242.894531 32.371094 C 242.183594 31.730469 241.121094 31.40625 239.707031 31.40625 C 238.722656 31.40625 237.753906 31.570312 236.792969 31.890625 C 235.855469 32.1875 235.054688 32.601562 234.394531 33.128906 L 232.472656 29.378906 C 233.480469 28.667969 234.679688 28.117188 236.074219 27.726562 C 237.488281 27.335938 238.941406 27.140625 240.425781 27.140625 Z M 240.015625 42.589844 C 240.925781 42.589844 241.738281 42.386719 242.449219 41.972656 C 243.15625 41.535156 243.660156 40.90625 243.957031 40.078125 L 243.957031 38.1875 L 240.289062 38.1875 C 238.09375 38.1875 237 38.910156 237 40.355469 C 237 41.042969 237.261719 41.59375 237.785156 42.007812 C 238.335938 42.394531 239.078125 42.589844 240.015625 42.589844 Z M 253.113281 20.398438 L 258.460938 20.398438 L 258.460938 45.929688 L 253.113281 45.929688 Z M 262.394531 20.398438 L 267.742188 20.398438 L 267.742188 45.929688 L 262.394531 45.929688 Z M 289.738281 36.742188 C 289.738281 36.8125 289.707031 37.292969 289.636719 38.1875 L 275.6875 38.1875 C 275.9375 39.332031 276.53125 40.238281 277.46875 40.90625 C 278.40625 41.570312 279.570312 41.902344 280.964844 41.902344 C 281.925781 41.902344 282.769531 41.765625 283.5 41.492188 C 284.257812 41.191406 284.953125 40.734375 285.59375 40.113281 L 288.4375 43.210938 C 286.699219 45.207031 284.164062 46.203125 280.828125 46.203125 C 278.75 46.203125 276.910156 45.804688 275.308594 45 C 273.710938 44.175781 272.476562 43.039062 271.609375 41.59375 C 270.742188 40.148438 270.304688 38.507812 270.304688 36.671875 C 270.304688 34.859375 270.726562 33.230469 271.574219 31.785156 C 272.441406 30.320312 273.621094 29.183594 275.105469 28.378906 C 276.613281 27.554688 278.292969 27.140625 280.144531 27.140625 C 281.949219 27.140625 283.582031 27.53125 285.042969 28.3125 C 286.507812 29.089844 287.648438 30.214844 288.472656 31.683594 C 289.316406 33.128906 289.738281 34.816406 289.738281 36.742188 Z M 280.175781 31.203125 C 278.964844 31.203125 277.949219 31.546875 277.125 32.234375 C 276.304688 32.921875 275.800781 33.863281 275.617188 35.054688 L 284.703125 35.054688 C 284.519531 33.886719 284.015625 32.957031 283.191406 32.269531 C 282.371094 31.558594 281.367188 31.203125 280.175781 31.203125 Z M 304.164062 45.035156 C 303.640625 45.425781 302.988281 45.722656 302.210938 45.929688 C 301.457031 46.113281 300.65625 46.203125 299.8125 46.203125 C 297.617188 46.203125 295.917969 45.644531 294.703125 44.519531 C 293.515625 43.394531 292.921875 41.742188 292.921875 39.5625 L 292.921875 31.957031 L 290.078125 31.957031 L 290.078125 27.828125 L 292.921875 27.828125 L 292.921875 23.320312 L 298.269531 23.320312 L 298.269531 27.828125 L 302.863281 27.828125 L 302.863281 31.957031 L 298.269531 31.957031 L 298.269531 39.496094 C 298.269531 40.273438 298.464844 40.882812 298.851562 41.316406 C 299.261719 41.730469 299.835938 41.9375 300.566406 41.9375 C 301.410156 41.9375 302.132812 41.707031 302.726562 41.25 Z M 304.164062 45.035156 " fill-opacity="1" fill-rule="nonzero"/><g fill="#ffffff" fill-opacity="1"><g transform="translate(311.331244, 44.750901)"><g><path d="M 23.78125 -23.859375 L 15.03125 0 L 9.21875 0 L 0.484375 -23.859375 L 5.609375 -23.859375 L 12.171875 -4.890625 L 18.6875 -23.859375 Z M 23.78125 -23.859375 "/></g></g></g><g fill="#ffffff" fill-opacity="1"><g transform="translate(335.619061, 44.750901)"><g><path d="M 4.78125 -21.1875 C 3.9375 -21.1875 3.234375 -21.453125 2.671875 -21.984375 C 2.117188 -22.523438 1.84375 -23.191406 1.84375 -23.984375 C 1.84375 -24.785156 2.117188 -25.453125 2.671875 -25.984375 C 3.234375 -26.523438 3.9375 -26.796875 4.78125 -26.796875 C 5.625 -26.796875 6.320312 -26.523438 6.875 -25.984375 C 7.4375 -25.453125 7.71875 -24.785156 7.71875 -23.984375 C 7.71875 -23.191406 7.4375 -22.523438 6.875 -21.984375 C 6.320312 -21.453125 5.625 -21.1875 4.78125 -21.1875 Z M 7.140625 -18.9375 L 7.140625 0 L 2.359375 0 L 2.359375 -18.9375 Z M 7.140625 -18.9375 "/></g></g></g><g fill="#ffffff" fill-opacity="1"><g transform="translate(345.115562, 44.750901)"><g><path d="M 7.140625 -16.203125 C 7.753906 -17.066406 8.601562 -17.785156 9.6875 -18.359375 C 10.769531 -18.941406 12.003906 -19.234375 13.390625 -19.234375 C 15.015625 -19.234375 16.476562 -18.832031 17.78125 -18.03125 C 19.09375 -17.238281 20.128906 -16.109375 20.890625 -14.640625 C 21.660156 -13.171875 22.046875 -11.46875 22.046875 -9.53125 C 22.046875 -7.59375 21.660156 -5.878906 20.890625 -4.390625 C 20.128906 -2.898438 19.09375 -1.742188 17.78125 -0.921875 C 16.476562 -0.0976562 15.015625 0.3125 13.390625 0.3125 C 12.003906 0.3125 10.78125 0.0234375 9.71875 -0.546875 C 8.664062 -1.117188 7.804688 -1.835938 7.140625 -2.703125 L 7.140625 9.015625 L 2.359375 9.015625 L 2.359375 -18.9375 L 7.140625 -18.9375 Z M 17.15625 -9.53125 C 17.15625 -10.675781 16.921875 -11.660156 16.453125 -12.484375 C 15.984375 -13.316406 15.367188 -13.945312 14.609375 -14.375 C 13.847656 -14.8125 13.019531 -15.03125 12.125 -15.03125 C 11.257812 -15.03125 10.445312 -14.804688 9.6875 -14.359375 C 8.925781 -13.921875 8.3125 -13.28125 7.84375 -12.4375 C 7.375 -11.59375 7.140625 -10.601562 7.140625 -9.46875 C 7.140625 -8.320312 7.375 -7.328125 7.84375 -6.484375 C 8.3125 -5.648438 8.925781 -5.007812 9.6875 -4.5625 C 10.445312 -4.113281 11.257812 -3.890625 12.125 -3.890625 C 13.019531 -3.890625 13.847656 -4.117188 14.609375 -4.578125 C 15.367188 -5.035156 15.984375 -5.6875 16.453125 -6.53125 C 16.921875 -7.375 17.15625 -8.375 17.15625 -9.53125 Z M 17.15625 -9.53125 "/></g></g></g></svg>